<mxfile host="app.diagrams.net" agent="Mozilla/5.0 (Windows NT 10.0; Win64; x64; rv:133.0) Gecko/20100101 Firefox/133.0" version="25.0.3">
  <diagram name="Page-1" id="9f46799a-70d6-7492-0946-bef42562c5a5">
    <mxGraphModel dx="1434" dy="746" grid="1" gridSize="10" guides="1" tooltips="1" connect="1" arrows="1" fold="1" page="1" pageScale="1" pageWidth="1100" pageHeight="850" background="none" math="0" shadow="0">
      <root>
        <mxCell id="0" />
        <mxCell id="1" parent="0" />
        <mxCell id="8LBlwDrGu_W19OU_mHfn-5" value="&lt;b&gt;&lt;span style=&quot;font-size:11.0pt;mso-bidi-font-size:&lt;br/&gt;10.0pt;font-family:&amp;quot;Calibri&amp;quot;,sans-serif;mso-fareast-font-family:&amp;quot;Times New Roman&amp;quot;;&lt;br/&gt;mso-bidi-font-family:&amp;quot;Times New Roman&amp;quot;;mso-ansi-language:EN-US;mso-fareast-language:&lt;br/&gt;RU;mso-bidi-language:AR-SA&quot;&gt;NCR - qmptc110&lt;br&gt;&lt;/span&gt;&lt;/b&gt;" style="swimlane;fontStyle=0;childLayout=stackLayout;horizontal=1;startSize=26;fillColor=none;horizontalStack=0;resizeParent=1;resizeParentMax=0;resizeLast=0;collapsible=1;marginBottom=0;whiteSpace=wrap;html=1;" vertex="1" parent="1">
          <mxGeometry x="270" y="184" width="210" height="104" as="geometry" />
        </mxCell>
        <mxCell id="8LBlwDrGu_W19OU_mHfn-6" value="&lt;span style=&quot;font-size:11.0pt;mso-bidi-font-size:10.0pt;&lt;br/&gt;font-family:&amp;quot;Calibri&amp;quot;,sans-serif;mso-fareast-font-family:&amp;quot;Times New Roman&amp;quot;;&lt;br/&gt;mso-bidi-font-family:&amp;quot;Times New Roman&amp;quot;;mso-ansi-language:EN-US;mso-fareast-language:&lt;br/&gt;RU;mso-bidi-language:AR-SA&quot;&gt;qmncm100.ncmr&lt;/span&gt;" style="text;strokeColor=default;fillColor=none;align=left;verticalAlign=top;spacingLeft=4;spacingRight=4;overflow=hidden;rotatable=0;points=[[0,0.5],[1,0.5]];portConstraint=eastwest;whiteSpace=wrap;html=1;" vertex="1" parent="8LBlwDrGu_W19OU_mHfn-5">
          <mxGeometry y="26" width="210" height="26" as="geometry" />
        </mxCell>
        <mxCell id="8LBlwDrGu_W19OU_mHfn-7" value="&lt;span style=&quot;font-size:11.0pt;mso-bidi-font-size:10.0pt;&lt;br/&gt;font-family:&amp;quot;Calibri&amp;quot;,sans-serif;mso-fareast-font-family:&amp;quot;Times New Roman&amp;quot;;&lt;br/&gt;mso-bidi-font-family:&amp;quot;Times New Roman&amp;quot;;mso-ansi-language:EN-US;mso-fareast-language:&lt;br/&gt;RU;mso-bidi-language:AR-SA&quot;&gt;qmncm100.stat&lt;/span&gt;" style="text;strokeColor=default;fillColor=none;align=left;verticalAlign=top;spacingLeft=4;spacingRight=4;overflow=hidden;rotatable=0;points=[[0,0.5],[1,0.5]];portConstraint=eastwest;whiteSpace=wrap;html=1;" vertex="1" parent="8LBlwDrGu_W19OU_mHfn-5">
          <mxGeometry y="52" width="210" height="26" as="geometry" />
        </mxCell>
        <mxCell id="8LBlwDrGu_W19OU_mHfn-8" value="&lt;span style=&quot;font-size:11.0pt;mso-bidi-font-size:10.0pt;&lt;br/&gt;font-family:&amp;quot;Calibri&amp;quot;,sans-serif;mso-fareast-font-family:&amp;quot;Times New Roman&amp;quot;;&lt;br/&gt;mso-bidi-font-family:&amp;quot;Times New Roman&amp;quot;;mso-ansi-language:EN-US;mso-fareast-language:&lt;br/&gt;RU;mso-bidi-language:AR-SA&quot;&gt;qmncm100.item.segment.2&lt;/span&gt;" style="text;strokeColor=none;fillColor=none;align=left;verticalAlign=top;spacingLeft=4;spacingRight=4;overflow=hidden;rotatable=0;points=[[0,0.5],[1,0.5]];portConstraint=eastwest;whiteSpace=wrap;html=1;" vertex="1" parent="8LBlwDrGu_W19OU_mHfn-5">
          <mxGeometry y="78" width="210" height="26" as="geometry" />
        </mxCell>
        <mxCell id="8LBlwDrGu_W19OU_mHfn-9" value="&lt;b&gt;&lt;span style=&quot;font-size:11.0pt;mso-bidi-font-size:&lt;br/&gt;10.0pt;font-family:&amp;quot;Calibri&amp;quot;,sans-serif;mso-fareast-font-family:&amp;quot;Times New Roman&amp;quot;;&lt;br/&gt;mso-bidi-font-family:&amp;quot;Times New Roman&amp;quot;;mso-ansi-language:EN-US;mso-fareast-language:&lt;br/&gt;RU;mso-bidi-language:AR-SA&quot;&gt;NCR - Lots and Serials - qmncm110&lt;br&gt;&lt;/span&gt;&lt;/b&gt;" style="swimlane;fontStyle=0;childLayout=stackLayout;horizontal=1;startSize=30;fillColor=none;horizontalStack=0;resizeParent=1;resizeParentMax=0;resizeLast=0;collapsible=1;marginBottom=0;whiteSpace=wrap;html=1;" vertex="1" parent="1">
          <mxGeometry x="620" y="180" width="260" height="134" as="geometry" />
        </mxCell>
        <mxCell id="8LBlwDrGu_W19OU_mHfn-10" value="&lt;span style=&quot;font-size:11.0pt;mso-bidi-font-size:10.0pt;&lt;br/&gt;font-family:&amp;quot;Calibri&amp;quot;,sans-serif;mso-fareast-font-family:&amp;quot;Times New Roman&amp;quot;;&lt;br/&gt;mso-bidi-font-family:&amp;quot;Times New Roman&amp;quot;;mso-ansi-language:EN-US;mso-fareast-language:&lt;br/&gt;RU;mso-bidi-language:AR-SA&quot;&gt;qmncm110.ncmr&lt;/span&gt;" style="text;strokeColor=default;fillColor=none;align=left;verticalAlign=top;spacingLeft=4;spacingRight=4;overflow=hidden;rotatable=0;points=[[0,0.5],[1,0.5]];portConstraint=eastwest;whiteSpace=wrap;html=1;" vertex="1" parent="8LBlwDrGu_W19OU_mHfn-9">
          <mxGeometry y="30" width="260" height="26" as="geometry" />
        </mxCell>
        <mxCell id="8LBlwDrGu_W19OU_mHfn-11" value="&lt;span style=&quot;font-size:11.0pt;mso-bidi-font-size:10.0pt;&lt;br/&gt;font-family:&amp;quot;Calibri&amp;quot;,sans-serif;mso-fareast-font-family:&amp;quot;Times New Roman&amp;quot;;&lt;br/&gt;mso-bidi-font-family:&amp;quot;Times New Roman&amp;quot;;mso-ansi-language:EN-US;mso-fareast-language:&lt;br/&gt;RU;mso-bidi-language:AR-SA&quot;&gt;qmncm110.seqn&lt;/span&gt;" style="text;strokeColor=default;fillColor=none;align=left;verticalAlign=top;spacingLeft=4;spacingRight=4;overflow=hidden;rotatable=0;points=[[0,0.5],[1,0.5]];portConstraint=eastwest;whiteSpace=wrap;html=1;" vertex="1" parent="8LBlwDrGu_W19OU_mHfn-9">
          <mxGeometry y="56" width="260" height="26" as="geometry" />
        </mxCell>
        <mxCell id="8LBlwDrGu_W19OU_mHfn-12" value="&lt;span style=&quot;font-size:11.0pt;mso-bidi-font-size:10.0pt;&lt;br/&gt;font-family:&amp;quot;Calibri&amp;quot;,sans-serif;mso-fareast-font-family:&amp;quot;Times New Roman&amp;quot;;&lt;br/&gt;mso-bidi-font-family:&amp;quot;Times New Roman&amp;quot;;mso-ansi-language:EN-US;mso-fareast-language:&lt;br/&gt;RU;mso-bidi-language:AR-SA&quot;&gt;qmncm110.serl&lt;/span&gt;" style="text;strokeColor=default;fillColor=none;align=left;verticalAlign=top;spacingLeft=4;spacingRight=4;overflow=hidden;rotatable=0;points=[[0,0.5],[1,0.5]];portConstraint=eastwest;whiteSpace=wrap;html=1;" vertex="1" parent="8LBlwDrGu_W19OU_mHfn-9">
          <mxGeometry y="82" width="260" height="26" as="geometry" />
        </mxCell>
        <mxCell id="8LBlwDrGu_W19OU_mHfn-29" value="&lt;span style=&quot;font-size:11.0pt;mso-bidi-font-size:10.0pt;&lt;br/&gt;font-family:&amp;quot;Calibri&amp;quot;,sans-serif;mso-fareast-font-family:&amp;quot;Times New Roman&amp;quot;;&lt;br/&gt;mso-bidi-font-family:&amp;quot;Times New Roman&amp;quot;;mso-ansi-language:EN-US;mso-fareast-language:&lt;br/&gt;RU;mso-bidi-language:AR-SA&quot;&gt;qmncm110.clot&lt;/span&gt;" style="text;strokeColor=none;fillColor=none;align=left;verticalAlign=top;spacingLeft=4;spacingRight=4;overflow=hidden;rotatable=0;points=[[0,0.5],[1,0.5]];portConstraint=eastwest;whiteSpace=wrap;html=1;" vertex="1" parent="8LBlwDrGu_W19OU_mHfn-9">
          <mxGeometry y="108" width="260" height="26" as="geometry" />
        </mxCell>
        <mxCell id="8LBlwDrGu_W19OU_mHfn-27" style="edgeStyle=orthogonalEdgeStyle;rounded=0;orthogonalLoop=1;jettySize=auto;html=1;strokeColor=default;curved=0;endArrow=classic;endFill=1;startArrow=classic;startFill=1;" edge="1" parent="1" source="8LBlwDrGu_W19OU_mHfn-6" target="8LBlwDrGu_W19OU_mHfn-10">
          <mxGeometry relative="1" as="geometry" />
        </mxCell>
        <mxCell id="8LBlwDrGu_W19OU_mHfn-30" value="&lt;b&gt;&lt;span style=&quot;font-size:11.0pt;mso-bidi-font-size:&lt;br/&gt;10.0pt;font-family:&amp;quot;Calibri&amp;quot;,sans-serif;mso-fareast-font-family:&amp;quot;Times New Roman&amp;quot;;&lt;br/&gt;mso-bidi-font-family:&amp;quot;Times New Roman&amp;quot;;mso-ansi-language:EN-US;mso-fareast-language:&lt;br/&gt;RU;mso-bidi-language:AR-SA&quot;&gt;HU - whwmd513&lt;br&gt;&lt;/span&gt;&lt;/b&gt;" style="swimlane;fontStyle=1;align=center;verticalAlign=top;childLayout=stackLayout;horizontal=1;startSize=26;horizontalStack=0;resizeParent=1;resizeParentMax=0;resizeLast=0;collapsible=1;marginBottom=0;whiteSpace=wrap;html=1;" vertex="1" parent="1">
          <mxGeometry x="270" y="380" width="210" height="138" as="geometry" />
        </mxCell>
        <mxCell id="8LBlwDrGu_W19OU_mHfn-31" value="&lt;span style=&quot;font-size:11.0pt;mso-bidi-font-size:&lt;br/&gt;10.0pt;font-family:&amp;quot;Calibri&amp;quot;,sans-serif;mso-fareast-font-family:&amp;quot;Times New Roman&amp;quot;;&lt;br/&gt;mso-bidi-font-family:&amp;quot;Times New Roman&amp;quot;;mso-ansi-language:RU;mso-fareast-language:&lt;br/&gt;RU;mso-bidi-language:AR-SA&quot; lang=&quot;RU&quot;&gt;whwmd530&lt;/span&gt;&lt;span style=&quot;font-size:11.0pt;&lt;br/&gt;mso-bidi-font-size:10.0pt;font-family:&amp;quot;Calibri&amp;quot;,sans-serif;mso-fareast-font-family:&lt;br/&gt;&amp;quot;Times New Roman&amp;quot;;mso-bidi-font-family:&amp;quot;Times New Roman&amp;quot;;mso-ansi-language:&lt;br/&gt;EN-US;mso-fareast-language:RU;mso-bidi-language:AR-SA&quot;&gt;.huid&lt;/span&gt;" style="text;strokeColor=none;fillColor=none;align=left;verticalAlign=top;spacingLeft=4;spacingRight=4;overflow=hidden;rotatable=0;points=[[0,0.5],[1,0.5]];portConstraint=eastwest;whiteSpace=wrap;html=1;" vertex="1" parent="8LBlwDrGu_W19OU_mHfn-30">
          <mxGeometry y="26" width="210" height="26" as="geometry" />
        </mxCell>
        <mxCell id="8LBlwDrGu_W19OU_mHfn-32" value="" style="line;strokeWidth=1;fillColor=none;align=left;verticalAlign=middle;spacingTop=-1;spacingLeft=3;spacingRight=3;rotatable=0;labelPosition=right;points=[];portConstraint=eastwest;strokeColor=inherit;" vertex="1" parent="8LBlwDrGu_W19OU_mHfn-30">
          <mxGeometry y="52" width="210" height="8" as="geometry" />
        </mxCell>
        <mxCell id="8LBlwDrGu_W19OU_mHfn-33" value="&lt;span style=&quot;font-size:11.0pt;mso-bidi-font-size:&lt;br/&gt;10.0pt;font-family:&amp;quot;Calibri&amp;quot;,sans-serif;mso-fareast-font-family:&amp;quot;Times New Roman&amp;quot;;&lt;br/&gt;mso-bidi-font-family:&amp;quot;Times New Roman&amp;quot;;mso-ansi-language:RU;mso-fareast-language:&lt;br/&gt;RU;mso-bidi-language:AR-SA&quot; lang=&quot;RU&quot;&gt;whwmd530.item.segment.2&lt;/span&gt;" style="text;strokeColor=none;fillColor=none;align=left;verticalAlign=top;spacingLeft=4;spacingRight=4;overflow=hidden;rotatable=0;points=[[0,0.5],[1,0.5]];portConstraint=eastwest;whiteSpace=wrap;html=1;" vertex="1" parent="8LBlwDrGu_W19OU_mHfn-30">
          <mxGeometry y="60" width="210" height="26" as="geometry" />
        </mxCell>
        <mxCell id="8LBlwDrGu_W19OU_mHfn-34" value="&lt;span style=&quot;font-size:11.0pt;mso-bidi-font-size:&lt;br/&gt;10.0pt;font-family:&amp;quot;Calibri&amp;quot;,sans-serif;mso-fareast-font-family:&amp;quot;Times New Roman&amp;quot;;&lt;br/&gt;mso-bidi-font-family:&amp;quot;Times New Roman&amp;quot;;mso-ansi-language:RU;mso-fareast-language:&lt;br/&gt;RU;mso-bidi-language:AR-SA&quot; lang=&quot;RU&quot;&gt;whwmd530.serl&lt;/span&gt;" style="text;strokeColor=default;fillColor=none;align=left;verticalAlign=top;spacingLeft=4;spacingRight=4;overflow=hidden;rotatable=0;points=[[0,0.5],[1,0.5]];portConstraint=eastwest;whiteSpace=wrap;html=1;" vertex="1" parent="8LBlwDrGu_W19OU_mHfn-30">
          <mxGeometry y="86" width="210" height="26" as="geometry" />
        </mxCell>
        <mxCell id="8LBlwDrGu_W19OU_mHfn-35" value="&lt;span style=&quot;font-size:11.0pt;mso-bidi-font-size:&lt;br/&gt;10.0pt;font-family:&amp;quot;Calibri&amp;quot;,sans-serif;mso-fareast-font-family:&amp;quot;Times New Roman&amp;quot;;&lt;br/&gt;mso-bidi-font-family:&amp;quot;Times New Roman&amp;quot;;mso-ansi-language:RU;mso-fareast-language:&lt;br/&gt;RU;mso-bidi-language:AR-SA&quot; lang=&quot;RU&quot;&gt;whwmd530.clot&lt;/span&gt;" style="text;strokeColor=default;fillColor=none;align=left;verticalAlign=top;spacingLeft=4;spacingRight=4;overflow=hidden;rotatable=0;points=[[0,0.5],[1,0.5]];portConstraint=eastwest;whiteSpace=wrap;html=1;" vertex="1" parent="8LBlwDrGu_W19OU_mHfn-30">
          <mxGeometry y="112" width="210" height="26" as="geometry" />
        </mxCell>
        <mxCell id="8LBlwDrGu_W19OU_mHfn-37" value="&lt;b&gt;&lt;span style=&quot;font-size:11.0pt;mso-bidi-font-size:&lt;br/&gt;10.0pt;font-family:&amp;quot;Calibri&amp;quot;,sans-serif;mso-fareast-font-family:&amp;quot;Times New Roman&amp;quot;;&lt;br/&gt;mso-bidi-font-family:&amp;quot;Times New Roman&amp;quot;;mso-ansi-language:EN-US;mso-fareast-language:&lt;br/&gt;RU;mso-bidi-language:AR-SA&quot;&gt;HU Process Quarantine - whwmd273&lt;br&gt;&lt;/span&gt;&lt;/b&gt;" style="swimlane;fontStyle=1;align=center;verticalAlign=top;childLayout=stackLayout;horizontal=1;startSize=26;horizontalStack=0;resizeParent=1;resizeParentMax=0;resizeLast=0;collapsible=1;marginBottom=0;whiteSpace=wrap;html=1;" vertex="1" parent="1">
          <mxGeometry x="620" y="380" width="260" height="86" as="geometry" />
        </mxCell>
        <mxCell id="8LBlwDrGu_W19OU_mHfn-38" value="&lt;span style=&quot;font-size:11.0pt;mso-bidi-font-size:10.0pt;&lt;br/&gt;font-family:&amp;quot;Calibri&amp;quot;,sans-serif;mso-fareast-font-family:&amp;quot;Times New Roman&amp;quot;;&lt;br/&gt;mso-bidi-font-family:&amp;quot;Times New Roman&amp;quot;;mso-ansi-language:EN-US;mso-fareast-language:&lt;br/&gt;RU;mso-bidi-language:AR-SA&quot;&gt;whwmd273.huid&lt;/span&gt;" style="text;strokeColor=none;fillColor=none;align=left;verticalAlign=top;spacingLeft=4;spacingRight=4;overflow=hidden;rotatable=0;points=[[0,0.5],[1,0.5]];portConstraint=eastwest;whiteSpace=wrap;html=1;" vertex="1" parent="8LBlwDrGu_W19OU_mHfn-37">
          <mxGeometry y="26" width="260" height="26" as="geometry" />
        </mxCell>
        <mxCell id="8LBlwDrGu_W19OU_mHfn-39" value="" style="line;strokeWidth=1;fillColor=none;align=left;verticalAlign=middle;spacingTop=-1;spacingLeft=3;spacingRight=3;rotatable=0;labelPosition=right;points=[];portConstraint=eastwest;strokeColor=inherit;" vertex="1" parent="8LBlwDrGu_W19OU_mHfn-37">
          <mxGeometry y="52" width="260" height="8" as="geometry" />
        </mxCell>
        <mxCell id="8LBlwDrGu_W19OU_mHfn-40" value="&lt;span style=&quot;font-size:11.0pt;mso-bidi-font-size:10.0pt;&lt;br/&gt;font-family:&amp;quot;Calibri&amp;quot;,sans-serif;mso-fareast-font-family:&amp;quot;Times New Roman&amp;quot;;&lt;br/&gt;mso-bidi-font-family:&amp;quot;Times New Roman&amp;quot;;mso-ansi-language:EN-US;mso-fareast-language:&lt;br/&gt;RU;mso-bidi-language:AR-SA&quot;&gt;whwmd273.rjct&lt;/span&gt;" style="text;strokeColor=none;fillColor=none;align=left;verticalAlign=top;spacingLeft=4;spacingRight=4;overflow=hidden;rotatable=0;points=[[0,0.5],[1,0.5]];portConstraint=eastwest;whiteSpace=wrap;html=1;" vertex="1" parent="8LBlwDrGu_W19OU_mHfn-37">
          <mxGeometry y="60" width="260" height="26" as="geometry" />
        </mxCell>
        <mxCell id="8LBlwDrGu_W19OU_mHfn-41" value="&lt;b&gt;&lt;span style=&quot;font-size:11.0pt;mso-bidi-font-size:&lt;br/&gt;10.0pt;font-family:&amp;quot;Calibri&amp;quot;,sans-serif;mso-fareast-font-family:&amp;quot;Times New Roman&amp;quot;;&lt;br/&gt;mso-bidi-font-family:&amp;quot;Times New Roman&amp;quot;;mso-ansi-language:EN-US;mso-fareast-language:&lt;br/&gt;RU;mso-bidi-language:AR-SA&quot;&gt;Quarantine Inventory - whwmd271&lt;br&gt;&lt;/span&gt;&lt;/b&gt;" style="swimlane;fontStyle=1;align=center;verticalAlign=top;childLayout=stackLayout;horizontal=1;startSize=26;horizontalStack=0;resizeParent=1;resizeParentMax=0;resizeLast=0;collapsible=1;marginBottom=0;whiteSpace=wrap;html=1;" vertex="1" parent="1">
          <mxGeometry x="620" y="500" width="260" height="60" as="geometry" />
        </mxCell>
        <mxCell id="8LBlwDrGu_W19OU_mHfn-42" value="&lt;span style=&quot;font-size:11.0pt;mso-bidi-font-size:10.0pt;&lt;br/&gt;font-family:&amp;quot;Calibri&amp;quot;,sans-serif;mso-fareast-font-family:&amp;quot;Times New Roman&amp;quot;;&lt;br/&gt;mso-bidi-font-family:&amp;quot;Times New Roman&amp;quot;;mso-ansi-language:EN-US;mso-fareast-language:&lt;br/&gt;RU;mso-bidi-language:AR-SA&quot;&gt;whwmd271.rjct&lt;/span&gt;" style="text;strokeColor=none;fillColor=none;align=left;verticalAlign=top;spacingLeft=4;spacingRight=4;overflow=hidden;rotatable=0;points=[[0,0.5],[1,0.5]];portConstraint=eastwest;whiteSpace=wrap;html=1;" vertex="1" parent="8LBlwDrGu_W19OU_mHfn-41">
          <mxGeometry y="26" width="260" height="26" as="geometry" />
        </mxCell>
        <mxCell id="8LBlwDrGu_W19OU_mHfn-43" value="" style="line;strokeWidth=1;fillColor=none;align=left;verticalAlign=middle;spacingTop=-1;spacingLeft=3;spacingRight=3;rotatable=0;labelPosition=right;points=[];portConstraint=eastwest;strokeColor=inherit;" vertex="1" parent="8LBlwDrGu_W19OU_mHfn-41">
          <mxGeometry y="52" width="260" height="8" as="geometry" />
        </mxCell>
        <mxCell id="8LBlwDrGu_W19OU_mHfn-45" style="edgeStyle=orthogonalEdgeStyle;rounded=0;orthogonalLoop=1;jettySize=auto;html=1;startArrow=classic;startFill=1;" edge="1" parent="1" source="8LBlwDrGu_W19OU_mHfn-31" target="8LBlwDrGu_W19OU_mHfn-38">
          <mxGeometry relative="1" as="geometry" />
        </mxCell>
        <mxCell id="8LBlwDrGu_W19OU_mHfn-46" style="edgeStyle=orthogonalEdgeStyle;rounded=0;orthogonalLoop=1;jettySize=auto;html=1;entryX=0;entryY=0.5;entryDx=0;entryDy=0;" edge="1" parent="1" source="8LBlwDrGu_W19OU_mHfn-40" target="8LBlwDrGu_W19OU_mHfn-42">
          <mxGeometry relative="1" as="geometry" />
        </mxCell>
        <mxCell id="8LBlwDrGu_W19OU_mHfn-47" style="edgeStyle=orthogonalEdgeStyle;rounded=0;orthogonalLoop=1;jettySize=auto;html=1;entryX=0.5;entryY=0;entryDx=0;entryDy=0;" edge="1" parent="1" source="8LBlwDrGu_W19OU_mHfn-42" target="8LBlwDrGu_W19OU_mHfn-5">
          <mxGeometry relative="1" as="geometry">
            <Array as="points">
              <mxPoint x="960" y="539" />
              <mxPoint x="960" y="120" />
              <mxPoint x="375" y="120" />
            </Array>
          </mxGeometry>
        </mxCell>
        <mxCell id="8LBlwDrGu_W19OU_mHfn-48" value="HU Blocking -whwmd640" style="swimlane;fontStyle=1;align=center;verticalAlign=top;childLayout=stackLayout;horizontal=1;startSize=26;horizontalStack=0;resizeParent=1;resizeParentMax=0;resizeLast=0;collapsible=1;marginBottom=0;whiteSpace=wrap;html=1;" vertex="1" parent="1">
          <mxGeometry x="270" y="550" width="210" height="86" as="geometry" />
        </mxCell>
        <mxCell id="8LBlwDrGu_W19OU_mHfn-49" value="whwmd640.huid" style="text;strokeColor=none;fillColor=none;align=left;verticalAlign=top;spacingLeft=4;spacingRight=4;overflow=hidden;rotatable=0;points=[[0,0.5],[1,0.5]];portConstraint=eastwest;whiteSpace=wrap;html=1;" vertex="1" parent="8LBlwDrGu_W19OU_mHfn-48">
          <mxGeometry y="26" width="210" height="26" as="geometry" />
        </mxCell>
        <mxCell id="8LBlwDrGu_W19OU_mHfn-50" value="" style="line;strokeWidth=1;fillColor=none;align=left;verticalAlign=middle;spacingTop=-1;spacingLeft=3;spacingRight=3;rotatable=0;labelPosition=right;points=[];portConstraint=eastwest;strokeColor=inherit;" vertex="1" parent="8LBlwDrGu_W19OU_mHfn-48">
          <mxGeometry y="52" width="210" height="8" as="geometry" />
        </mxCell>
        <mxCell id="8LBlwDrGu_W19OU_mHfn-51" value="whwmd640.bloc" style="text;strokeColor=none;fillColor=none;align=left;verticalAlign=top;spacingLeft=4;spacingRight=4;overflow=hidden;rotatable=0;points=[[0,0.5],[1,0.5]];portConstraint=eastwest;whiteSpace=wrap;html=1;" vertex="1" parent="8LBlwDrGu_W19OU_mHfn-48">
          <mxGeometry y="60" width="210" height="26" as="geometry" />
        </mxCell>
        <mxCell id="8LBlwDrGu_W19OU_mHfn-52" style="edgeStyle=orthogonalEdgeStyle;rounded=0;orthogonalLoop=1;jettySize=auto;html=1;entryX=0;entryY=0.5;entryDx=0;entryDy=0;" edge="1" parent="1" source="8LBlwDrGu_W19OU_mHfn-31" target="8LBlwDrGu_W19OU_mHfn-49">
          <mxGeometry relative="1" as="geometry" />
        </mxCell>
      </root>
    </mxGraphModel>
  </diagram>
</mxfile>
